<svg xmlns="http://www.w3.org/2000/svg" viewBox="0 0 48 48"><title>Play with pet</title><g id="Play_with_pet" data-name="Play with pet"><path d="M48,46.76l-1.78-7.13a11,11,0,0,0-6.45-7.48L33,29.33V27.05a9,9,0,0,0,5-8h.5a3.5,3.5,0,0,0,0-7c-1,0-.09.29-.82-2.37C40.36,6.92,40,4.11,40,1A1,1,0,0,0,38.45.17C32.27,4.28,26.24-.37,23,4.05A3.48,3.48,0,0,0,19,7.5v4.55a3.49,3.49,0,0,0,.5,7H20a9,9,0,0,0,5,8.05v2.28l-4.15,1.73A7,7,0,0,0,20,28.88V24.41a2.41,2.41,0,0,0-4.12-1.7C13.14,25.45,13.78,25,13,25s-.14.45-2.88-2.29A2.41,2.41,0,0,0,6,24.41v4.47A7,7,0,0,0,5,32.5c0,1.7.47,1.29-.32,1.55A1,1,0,0,0,5,36c.15,0,.17,0,.82-.22a6.66,6.66,0,0,0,.63,1l-.77.25A1,1,0,0,0,6,39c.22,0,.14,0,2-.63a4.15,4.15,0,0,0,.43.3A7,7,0,0,0,6,44H5a1,1,0,0,1-1-1V42c0-3-4-3.92-4-2a1,1,0,0,0,1,1,1,1,0,0,1,1,1v1a3,3,0,0,0,3,3H6a2,2,0,0,0,2,2H18a2,2,0,0,0,2-2c0-2.47.24-5-2.47-7.33.6-.39.07-.42,2.15.28a1,1,0,0,0,.64-1.9l-.77-.25c.88-1.18.36-1.11,1.13-.85a1,1,0,0,0,.64-1.9c-.63-.21-.44,0-.36-.87l4.77-2a4.71,4.71,0,0,0,6.54,0L39,34a9,9,0,0,1,5.27,6.12L46,47.24A1,1,0,0,0,48,46.76ZM17.29,24.12a.43.43,0,0,1,.71.29v2.24a8.32,8.32,0,0,0-2.1-1.13Zm-8.58,0,1.39,1.4A8.32,8.32,0,0,0,8,26.65V24.41A.43.43,0,0,1,8.71,24.12ZM18,44v2H16a2.31,2.31,0,0,1,.67-1.29,1,1,0,0,0,0-1.42c-1.13-1.12-2.51,1-2.67,2.71H12a4.44,4.44,0,0,0-1.25-2.71,1,1,0,0,0-1.42,1.42A2.31,2.31,0,0,1,10,46H8V44a5,5,0,0,1,2.57-4.36,8.38,8.38,0,0,0,4.86,0A5,5,0,0,1,18,44Zm.32-11a1,1,0,0,0-.64,1.9l.58.19a5.42,5.42,0,0,1-.75,1c-1.08-.36-1.64.4-1.46,1.11a6.41,6.41,0,0,1-6.1,0c.18-.71-.37-1.48-1.46-1.11a5.42,5.42,0,0,1-.75-1L8.32,35a1,1,0,0,0-.64-1.9l-.62.21C6.55,29.86,9.45,27,13,27s6.45,2.86,5.94,6.26ZM38.5,14a1.5,1.5,0,0,1,0,3H38V14ZM27,4c5.26,0,7.71.31,11-1.28V4a6,6,0,0,1-6,6H27a3,3,0,0,1,0-6ZM21,7.5a1.51,1.51,0,0,1,1.09-1.44,4.9,4.9,0,0,0,1.17,4.22A4,4,0,0,1,21,11.87ZM19.5,17a1.5,1.5,0,0,1,0-3H20v3ZM22,19V13.65a6,6,0,0,0,2.86-2.15A5,5,0,0,0,27,12c5,0,6.6.27,8.91-1,.12.8.09.21.09,8a7,7,0,0,1-14,0Zm5,10.62V27.77a8.72,8.72,0,0,0,4,0v1.85A2.67,2.67,0,0,1,27,29.62Z"/><path d="M38,40v7a1,1,0,0,0,2,0V40A1,1,0,0,0,38,40Z"/><path d="M10.29,30.29a1,1,0,0,0,1.42,1.42A1,1,0,0,0,10.29,30.29Z"/><path d="M14.62,30.08A1,1,0,1,0,16,31,1,1,0,0,0,14.62,30.08Z"/><path d="M13.5,33c-.74,0-1.47-.14-1.85.47s-.12.83.46,2a1,1,0,0,0,1.78,0l.5-1A1,1,0,0,0,13.5,33Z"/><path d="M27,15a1,1,0,0,0-2,0A1,1,0,0,0,27,15Z"/><path d="M32,16a1,1,0,0,0,0-2A1,1,0,0,0,32,16Z"/><path d="M31.83,22.83a1,1,0,0,0-1.42-1.42,2,2,0,0,1-2.82,0,1,1,0,0,0-1.42,0C24.67,22.92,29.15,25.51,31.83,22.83Z"/></g></svg>